<svg preserveAspectRatio="none" width="100%" height="100%" overflow="visible" style="display: block;" viewBox="0 0 24 24" fill="none" xmlns="http://www.w3.org/2000/svg">
<g id="mecenatka_solid">
<path id="Vector" d="M12.0817 17.211L12 17.2927L11.9101 17.211C8.02725 13.6878 5.46049 11.3581 5.46049 8.9957C5.46049 7.36082 6.68665 6.13466 8.32153 6.13466C9.58038 6.13466 10.8065 6.9521 11.2398 8.06382H12.7602C13.1935 6.9521 14.4196 6.13466 15.6785 6.13466C17.3134 6.13466 18.5395 7.36082 18.5395 8.9957C18.5395 11.3581 15.9728 13.6878 12.0817 17.211ZM15.6785 4.49979C14.2561 4.49979 12.891 5.16191 12 6.20006C11.109 5.16191 9.74387 4.49979 8.32153 4.49979C5.80382 4.49979 3.82561 6.46981 3.82561 8.9957C3.82561 12.0774 6.6049 14.6033 10.8147 18.4208L12 19.4998L13.1853 18.4208C17.3951 14.6033 20.1744 12.0774 20.1744 8.9957C20.1744 6.46981 18.1962 4.49979 15.6785 4.49979Z" fill="var(--fill-0, #57626F)"/>
</g>
</svg>
